<svg xmlns="http://www.w3.org/2000/svg" viewBox="0 0 940 300" font-family="'SF Mono','Cascadia Code','JetBrains Mono',Menlo,Consolas,monospace" role="img" aria-label="One year of GitHub contribution activity">
  <defs>
    <style>
      .cell{opacity:0;animation:fadeIn .5s ease forwards;}
      @keyframes fadeIn{to{opacity:1;}}
      .pulse{animation:blink 2.6s ease-in-out infinite;}
      @keyframes blink{0%,100%{opacity:.5;}50%{opacity:1;}}
      @media (prefers-reduced-motion: reduce){.cell{animation:none;opacity:1;} .pulse{animation:none;}}
    </style>
  </defs>
  <rect width="940" height="300" rx="14" fill="#04050a"/>
  <rect x=".5" y=".5" width="939" height="299" rx="14" fill="none" stroke="#ffffff" stroke-opacity=".08"/>

  <circle class="pulse" cx="884" cy="34" r="4" fill="#22d3ee"/>
  <text x="866" y="39" text-anchor="end" font-size="11" letter-spacing="1.5" fill="#8e99ad">GITHUB API SNAPSHOT</text>

  <text x="30" y="40" font-size="21" font-weight="800" fill="#eef2f8">One year of shipping</text>

  <g transform="translate(0 44)">
<rect x="30" y="20" width="11" height="11" rx="2.5" fill="#1c6577"><title>2025-07-06: 20</title></rect>
<rect x="30" y="34" width="11" height="11" rx="2.5" fill="#123842"><title>2025-07-07: 4</title></rect>
<rect x="30" y="48" width="11" height="11" rx="2.5" fill="#123842"><title>2025-07-08: 6</title></rect>
<rect x="30" y="62" width="11" height="11" rx="2.5" fill="#12141c"><title>2025-07-09: 0</title></rect>
<rect x="30" y="76" width="11" height="11" rx="2.5" fill="#123842"><title>2025-07-10: 6</title></rect>
<rect x="30" y="90" width="11" height="11" rx="2.5" fill="#123842"><title>2025-07-11: 1</title></rect>
<rect x="30" y="104" width="11" height="11" rx="2.5" fill="#12141c"><title>2025-07-12: 0</title></rect>
<rect x="44" y="20" width="11" height="11" rx="2.5" fill="#12141c"><title>2025-07-13: 0</title></rect>
<rect x="44" y="34" width="11" height="11" rx="2.5" fill="#12141c"><title>2025-07-14: 0</title></rect>
<rect x="44" y="48" width="11" height="11" rx="2.5" fill="#12141c"><title>2025-07-15: 0</title></rect>
<rect x="44" y="62" width="11" height="11" rx="2.5" fill="#12141c"><title>2025-07-16: 0</title></rect>
<rect x="44" y="76" width="11" height="11" rx="2.5" fill="#12141c"><title>2025-07-17: 0</title></rect>
<rect x="44" y="90" width="11" height="11" rx="2.5" fill="#12141c"><title>2025-07-18: 0</title></rect>
<rect x="44" y="104" width="11" height="11" rx="2.5" fill="#12141c"><title>2025-07-19: 0</title></rect>
<rect x="58" y="20" width="11" height="11" rx="2.5" fill="#1c6577"><title>2025-07-20: 21</title></rect>
<rect x="58" y="34" width="11" height="11" rx="2.5" fill="#22a8c4"><title>2025-07-21: 25</title></rect>
<rect x="58" y="48" width="11" height="11" rx="2.5" fill="#1c6577"><title>2025-07-22: 10</title></rect>
<rect x="58" y="62" width="11" height="11" rx="2.5" fill="#1c6577"><title>2025-07-23: 9</title></rect>
<rect x="58" y="76" width="11" height="11" rx="2.5" fill="#1c6577"><title>2025-07-24: 7</title></rect>
<rect x="58" y="90" width="11" height="11" rx="2.5" fill="#123842"><title>2025-07-25: 1</title></rect>
<rect x="58" y="104" width="11" height="11" rx="2.5" fill="#123842"><title>2025-07-26: 1</title></rect>
<rect x="72" y="20" width="11" height="11" rx="2.5" fill="#123842"><title>2025-07-27: 5</title></rect>
<rect x="72" y="34" width="11" height="11" rx="2.5" fill="#123842"><title>2025-07-28: 5</title></rect>
<rect x="72" y="48" width="11" height="11" rx="2.5" fill="#123842"><title>2025-07-29: 2</title></rect>
<rect x="72" y="62" width="11" height="11" rx="2.5" fill="#22d3ee"><title>2025-07-30: 47</title></rect>
<rect x="72" y="76" width="11" height="11" rx="2.5" fill="#1c6577"><title>2025-07-31: 7</title></rect>
<rect x="72" y="90" width="11" height="11" rx="2.5" fill="#1c6577"><title>2025-08-01: 9</title></rect>
<rect x="72" y="104" width="11" height="11" rx="2.5" fill="#1c6577"><title>2025-08-02: 10</title></rect>
<rect x="86" y="20" width="11" height="11" rx="2.5" fill="#22a8c4"><title>2025-08-03: 45</title></rect>
<rect x="86" y="34" width="11" height="11" rx="2.5" fill="#22a8c4"><title>2025-08-04: 25</title></rect>
<rect x="86" y="48" width="11" height="11" rx="2.5" fill="#123842"><title>2025-08-05: 5</title></rect>
<rect x="86" y="62" width="11" height="11" rx="2.5" fill="#22a8c4"><title>2025-08-06: 39</title></rect>
<rect x="86" y="76" width="11" height="11" rx="2.5" fill="#12141c"><title>2025-08-07: 0</title></rect>
<rect x="86" y="90" width="11" height="11" rx="2.5" fill="#12141c"><title>2025-08-08: 0</title></rect>
<rect x="86" y="104" width="11" height="11" rx="2.5" fill="#12141c"><title>2025-08-09: 0</title></rect>
<rect x="100" y="20" width="11" height="11" rx="2.5" fill="#12141c"><title>2025-08-10: 0</title></rect>
<rect x="100" y="34" width="11" height="11" rx="2.5" fill="#12141c"><title>2025-08-11: 0</title></rect>
<rect x="100" y="48" width="11" height="11" rx="2.5" fill="#22a8c4"><title>2025-08-12: 36</title></rect>
<rect x="100" y="62" width="11" height="11" rx="2.5" fill="#22a8c4"><title>2025-08-13: 28</title></rect>
<rect x="100" y="76" width="11" height="11" rx="2.5" fill="#1c6577"><title>2025-08-14: 21</title></rect>
<rect x="100" y="90" width="11" height="11" rx="2.5" fill="#12141c"><title>2025-08-15: 0</title></rect>
<rect x="100" y="104" width="11" height="11" rx="2.5" fill="#12141c"><title>2025-08-16: 0</title></rect>
<rect x="114" y="20" width="11" height="11" rx="2.5" fill="#12141c"><title>2025-08-17: 0</title></rect>
<rect x="114" y="34" width="11" height="11" rx="2.5" fill="#12141c"><title>2025-08-18: 0</title></rect>
<rect x="114" y="48" width="11" height="11" rx="2.5" fill="#12141c"><title>2025-08-19: 0</title></rect>
<rect x="114" y="62" width="11" height="11" rx="2.5" fill="#1c6577"><title>2025-08-20: 19</title></rect>
<rect x="114" y="76" width="11" height="11" rx="2.5" fill="#12141c"><title>2025-08-21: 0</title></rect>
<rect x="114" y="90" width="11" height="11" rx="2.5" fill="#12141c"><title>2025-08-22: 0</title></rect>
<rect x="114" y="104" width="11" height="11" rx="2.5" fill="#12141c"><title>2025-08-23: 0</title></rect>
<rect x="128" y="20" width="11" height="11" rx="2.5" fill="#12141c"><title>2025-08-24: 0</title></rect>
<rect x="128" y="34" width="11" height="11" rx="2.5" fill="#1c6577"><title>2025-08-25: 14</title></rect>
<rect x="128" y="48" width="11" height="11" rx="2.5" fill="#123842"><title>2025-08-26: 3</title></rect>
<rect x="128" y="62" width="11" height="11" rx="2.5" fill="#1c6577"><title>2025-08-27: 15</title></rect>
<rect x="128" y="76" width="11" height="11" rx="2.5" fill="#1c6577"><title>2025-08-28: 8</title></rect>
<rect x="128" y="90" width="11" height="11" rx="2.5" fill="#12141c"><title>2025-08-29: 0</title></rect>
<rect x="128" y="104" width="11" height="11" rx="2.5" fill="#12141c"><title>2025-08-30: 0</title></rect>
<rect x="142" y="20" width="11" height="11" rx="2.5" fill="#12141c"><title>2025-08-31: 0</title></rect>
<rect x="142" y="34" width="11" height="11" rx="2.5" fill="#1c6577"><title>2025-09-01: 14</title></rect>
<rect x="142" y="48" width="11" height="11" rx="2.5" fill="#123842"><title>2025-09-02: 4</title></rect>
<rect x="142" y="62" width="11" height="11" rx="2.5" fill="#12141c"><title>2025-09-03: 0</title></rect>
<rect x="142" y="76" width="11" height="11" rx="2.5" fill="#12141c"><title>2025-09-04: 0</title></rect>
<rect x="142" y="90" width="11" height="11" rx="2.5" fill="#12141c"><title>2025-09-05: 0</title></rect>
<rect x="142" y="104" width="11" height="11" rx="2.5" fill="#12141c"><title>2025-09-06: 0</title></rect>
<rect x="156" y="20" width="11" height="11" rx="2.5" fill="#123842"><title>2025-09-07: 3</title></rect>
<rect x="156" y="34" width="11" height="11" rx="2.5" fill="#123842"><title>2025-09-08: 4</title></rect>
<rect x="156" y="48" width="11" height="11" rx="2.5" fill="#12141c"><title>2025-09-09: 0</title></rect>
<rect x="156" y="62" width="11" height="11" rx="2.5" fill="#12141c"><title>2025-09-10: 0</title></rect>
<rect x="156" y="76" width="11" height="11" rx="2.5" fill="#123842"><title>2025-09-11: 1</title></rect>
<rect x="156" y="90" width="11" height="11" rx="2.5" fill="#123842"><title>2025-09-12: 1</title></rect>
<rect x="156" y="104" width="11" height="11" rx="2.5" fill="#12141c"><title>2025-09-13: 0</title></rect>
<rect x="170" y="20" width="11" height="11" rx="2.5" fill="#12141c"><title>2025-09-14: 0</title></rect>
<rect x="170" y="34" width="11" height="11" rx="2.5" fill="#12141c"><title>2025-09-15: 0</title></rect>
<rect x="170" y="48" width="11" height="11" rx="2.5" fill="#12141c"><title>2025-09-16: 0</title></rect>
<rect x="170" y="62" width="11" height="11" rx="2.5" fill="#1c6577"><title>2025-09-17: 8</title></rect>
<rect x="170" y="76" width="11" height="11" rx="2.5" fill="#123842"><title>2025-09-18: 1</title></rect>
<rect x="170" y="90" width="11" height="11" rx="2.5" fill="#12141c"><title>2025-09-19: 0</title></rect>
<rect x="170" y="104" width="11" height="11" rx="2.5" fill="#12141c"><title>2025-09-20: 0</title></rect>
<rect x="184" y="20" width="11" height="11" rx="2.5" fill="#12141c"><title>2025-09-21: 0</title></rect>
<rect x="184" y="34" width="11" height="11" rx="2.5" fill="#12141c"><title>2025-09-22: 0</title></rect>
<rect x="184" y="48" width="11" height="11" rx="2.5" fill="#12141c"><title>2025-09-23: 0</title></rect>
<rect x="184" y="62" width="11" height="11" rx="2.5" fill="#123842"><title>2025-09-24: 3</title></rect>
<rect x="184" y="76" width="11" height="11" rx="2.5" fill="#12141c"><title>2025-09-25: 0</title></rect>
<rect x="184" y="90" width="11" height="11" rx="2.5" fill="#12141c"><title>2025-09-26: 0</title></rect>
<rect x="184" y="104" width="11" height="11" rx="2.5" fill="#12141c"><title>2025-09-27: 0</title></rect>
<rect x="198" y="20" width="11" height="11" rx="2.5" fill="#12141c"><title>2025-09-28: 0</title></rect>
<rect x="198" y="34" width="11" height="11" rx="2.5" fill="#12141c"><title>2025-09-29: 0</title></rect>
<rect x="198" y="48" width="11" height="11" rx="2.5" fill="#12141c"><title>2025-09-30: 0</title></rect>
<rect x="198" y="62" width="11" height="11" rx="2.5" fill="#12141c"><title>2025-10-01: 0</title></rect>
<rect x="198" y="76" width="11" height="11" rx="2.5" fill="#12141c"><title>2025-10-02: 0</title></rect>
<rect x="198" y="90" width="11" height="11" rx="2.5" fill="#12141c"><title>2025-10-03: 0</title></rect>
<rect x="198" y="104" width="11" height="11" rx="2.5" fill="#12141c"><title>2025-10-04: 0</title></rect>
<rect x="212" y="20" width="11" height="11" rx="2.5" fill="#12141c"><title>2025-10-05: 0</title></rect>
<rect x="212" y="34" width="11" height="11" rx="2.5" fill="#12141c"><title>2025-10-06: 0</title></rect>
<rect x="212" y="48" width="11" height="11" rx="2.5" fill="#12141c"><title>2025-10-07: 0</title></rect>
<rect x="212" y="62" width="11" height="11" rx="2.5" fill="#12141c"><title>2025-10-08: 0</title></rect>
<rect x="212" y="76" width="11" height="11" rx="2.5" fill="#12141c"><title>2025-10-09: 0</title></rect>
<rect x="212" y="90" width="11" height="11" rx="2.5" fill="#12141c"><title>2025-10-10: 0</title></rect>
<rect x="212" y="104" width="11" height="11" rx="2.5" fill="#12141c"><title>2025-10-11: 0</title></rect>
<rect x="226" y="20" width="11" height="11" rx="2.5" fill="#12141c"><title>2025-10-12: 0</title></rect>
<rect x="226" y="34" width="11" height="11" rx="2.5" fill="#12141c"><title>2025-10-13: 0</title></rect>
<rect x="226" y="48" width="11" height="11" rx="2.5" fill="#12141c"><title>2025-10-14: 0</title></rect>
<rect x="226" y="62" width="11" height="11" rx="2.5" fill="#12141c"><title>2025-10-15: 0</title></rect>
<rect x="226" y="76" width="11" height="11" rx="2.5" fill="#12141c"><title>2025-10-16: 0</title></rect>
<rect x="226" y="90" width="11" height="11" rx="2.5" fill="#12141c"><title>2025-10-17: 0</title></rect>
<rect x="226" y="104" width="11" height="11" rx="2.5" fill="#12141c"><title>2025-10-18: 0</title></rect>
<rect x="240" y="20" width="11" height="11" rx="2.5" fill="#12141c"><title>2025-10-19: 0</title></rect>
<rect x="240" y="34" width="11" height="11" rx="2.5" fill="#12141c"><title>2025-10-20: 0</title></rect>
<rect x="240" y="48" width="11" height="11" rx="2.5" fill="#12141c"><title>2025-10-21: 0</title></rect>
<rect x="240" y="62" width="11" height="11" rx="2.5" fill="#12141c"><title>2025-10-22: 0</title></rect>
<rect x="240" y="76" width="11" height="11" rx="2.5" fill="#12141c"><title>2025-10-23: 0</title></rect>
<rect x="240" y="90" width="11" height="11" rx="2.5" fill="#123842"><title>2025-10-24: 1</title></rect>
<rect x="240" y="104" width="11" height="11" rx="2.5" fill="#12141c"><title>2025-10-25: 0</title></rect>
<rect x="254" y="20" width="11" height="11" rx="2.5" fill="#12141c"><title>2025-10-26: 0</title></rect>
<rect x="254" y="34" width="11" height="11" rx="2.5" fill="#12141c"><title>2025-10-27: 0</title></rect>
<rect x="254" y="48" width="11" height="11" rx="2.5" fill="#12141c"><title>2025-10-28: 0</title></rect>
<rect x="254" y="62" width="11" height="11" rx="2.5" fill="#12141c"><title>2025-10-29: 0</title></rect>
<rect x="254" y="76" width="11" height="11" rx="2.5" fill="#12141c"><title>2025-10-30: 0</title></rect>
<rect x="254" y="90" width="11" height="11" rx="2.5" fill="#22d3ee"><title>2025-10-31: 88</title></rect>
<rect x="254" y="104" width="11" height="11" rx="2.5" fill="#12141c"><title>2025-11-01: 0</title></rect>
<rect x="268" y="20" width="11" height="11" rx="2.5" fill="#12141c"><title>2025-11-02: 0</title></rect>
<rect x="268" y="34" width="11" height="11" rx="2.5" fill="#1c6577"><title>2025-11-03: 10</title></rect>
<rect x="268" y="48" width="11" height="11" rx="2.5" fill="#12141c"><title>2025-11-04: 0</title></rect>
<rect x="268" y="62" width="11" height="11" rx="2.5" fill="#22a8c4"><title>2025-11-05: 31</title></rect>
<rect x="268" y="76" width="11" height="11" rx="2.5" fill="#123842"><title>2025-11-06: 6</title></rect>
<rect x="268" y="90" width="11" height="11" rx="2.5" fill="#22a8c4"><title>2025-11-07: 25</title></rect>
<rect x="268" y="104" width="11" height="11" rx="2.5" fill="#12141c"><title>2025-11-08: 0</title></rect>
<rect x="282" y="20" width="11" height="11" rx="2.5" fill="#123842"><title>2025-11-09: 2</title></rect>
<rect x="282" y="34" width="11" height="11" rx="2.5" fill="#12141c"><title>2025-11-10: 0</title></rect>
<rect x="282" y="48" width="11" height="11" rx="2.5" fill="#12141c"><title>2025-11-11: 0</title></rect>
<rect x="282" y="62" width="11" height="11" rx="2.5" fill="#22a8c4"><title>2025-11-12: 33</title></rect>
<rect x="282" y="76" width="11" height="11" rx="2.5" fill="#12141c"><title>2025-11-13: 0</title></rect>
<rect x="282" y="90" width="11" height="11" rx="2.5" fill="#22d3ee"><title>2025-11-14: 87</title></rect>
<rect x="282" y="104" width="11" height="11" rx="2.5" fill="#12141c"><title>2025-11-15: 0</title></rect>
<rect x="296" y="20" width="11" height="11" rx="2.5" fill="#12141c"><title>2025-11-16: 0</title></rect>
<rect x="296" y="34" width="11" height="11" rx="2.5" fill="#22a8c4"><title>2025-11-17: 43</title></rect>
<rect x="296" y="48" width="11" height="11" rx="2.5" fill="#1c6577"><title>2025-11-18: 11</title></rect>
<rect x="296" y="62" width="11" height="11" rx="2.5" fill="#123842"><title>2025-11-19: 5</title></rect>
<rect x="296" y="76" width="11" height="11" rx="2.5" fill="#12141c"><title>2025-11-20: 0</title></rect>
<rect x="296" y="90" width="11" height="11" rx="2.5" fill="#123842"><title>2025-11-21: 4</title></rect>
<rect x="296" y="104" width="11" height="11" rx="2.5" fill="#12141c"><title>2025-11-22: 0</title></rect>
<rect x="310" y="20" width="11" height="11" rx="2.5" fill="#12141c"><title>2025-11-23: 0</title></rect>
<rect x="310" y="34" width="11" height="11" rx="2.5" fill="#12141c"><title>2025-11-24: 0</title></rect>
<rect x="310" y="48" width="11" height="11" rx="2.5" fill="#12141c"><title>2025-11-25: 0</title></rect>
<rect x="310" y="62" width="11" height="11" rx="2.5" fill="#1c6577"><title>2025-11-26: 15</title></rect>
<rect x="310" y="76" width="11" height="11" rx="2.5" fill="#12141c"><title>2025-11-27: 0</title></rect>
<rect x="310" y="90" width="11" height="11" rx="2.5" fill="#1c6577"><title>2025-11-28: 10</title></rect>
<rect x="310" y="104" width="11" height="11" rx="2.5" fill="#12141c"><title>2025-11-29: 0</title></rect>
<rect x="324" y="20" width="11" height="11" rx="2.5" fill="#12141c"><title>2025-11-30: 0</title></rect>
<rect x="324" y="34" width="11" height="11" rx="2.5" fill="#1c6577"><title>2025-12-01: 19</title></rect>
<rect x="324" y="48" width="11" height="11" rx="2.5" fill="#123842"><title>2025-12-02: 2</title></rect>
<rect x="324" y="62" width="11" height="11" rx="2.5" fill="#123842"><title>2025-12-03: 5</title></rect>
<rect x="324" y="76" width="11" height="11" rx="2.5" fill="#12141c"><title>2025-12-04: 0</title></rect>
<rect x="324" y="90" width="11" height="11" rx="2.5" fill="#123842"><title>2025-12-05: 1</title></rect>
<rect x="324" y="104" width="11" height="11" rx="2.5" fill="#12141c"><title>2025-12-06: 0</title></rect>
<rect x="338" y="20" width="11" height="11" rx="2.5" fill="#12141c"><title>2025-12-07: 0</title></rect>
<rect x="338" y="34" width="11" height="11" rx="2.5" fill="#123842"><title>2025-12-08: 1</title></rect>
<rect x="338" y="48" width="11" height="11" rx="2.5" fill="#12141c"><title>2025-12-09: 0</title></rect>
<rect x="338" y="62" width="11" height="11" rx="2.5" fill="#12141c"><title>2025-12-10: 0</title></rect>
<rect x="338" y="76" width="11" height="11" rx="2.5" fill="#12141c"><title>2025-12-11: 0</title></rect>
<rect x="338" y="90" width="11" height="11" rx="2.5" fill="#12141c"><title>2025-12-12: 0</title></rect>
<rect x="338" y="104" width="11" height="11" rx="2.5" fill="#12141c"><title>2025-12-13: 0</title></rect>
<rect x="352" y="20" width="11" height="11" rx="2.5" fill="#12141c"><title>2025-12-14: 0</title></rect>
<rect x="352" y="34" width="11" height="11" rx="2.5" fill="#12141c"><title>2025-12-15: 0</title></rect>
<rect x="352" y="48" width="11" height="11" rx="2.5" fill="#12141c"><title>2025-12-16: 0</title></rect>
<rect x="352" y="62" width="11" height="11" rx="2.5" fill="#12141c"><title>2025-12-17: 0</title></rect>
<rect x="352" y="76" width="11" height="11" rx="2.5" fill="#12141c"><title>2025-12-18: 0</title></rect>
<rect x="352" y="90" width="11" height="11" rx="2.5" fill="#12141c"><title>2025-12-19: 0</title></rect>
<rect x="352" y="104" width="11" height="11" rx="2.5" fill="#12141c"><title>2025-12-20: 0</title></rect>
<rect x="366" y="20" width="11" height="11" rx="2.5" fill="#12141c"><title>2025-12-21: 0</title></rect>
<rect x="366" y="34" width="11" height="11" rx="2.5" fill="#12141c"><title>2025-12-22: 0</title></rect>
<rect x="366" y="48" width="11" height="11" rx="2.5" fill="#12141c"><title>2025-12-23: 0</title></rect>
<rect x="366" y="62" width="11" height="11" rx="2.5" fill="#12141c"><title>2025-12-24: 0</title></rect>
<rect x="366" y="76" width="11" height="11" rx="2.5" fill="#12141c"><title>2025-12-25: 0</title></rect>
<rect x="366" y="90" width="11" height="11" rx="2.5" fill="#12141c"><title>2025-12-26: 0</title></rect>
<rect x="366" y="104" width="11" height="11" rx="2.5" fill="#12141c"><title>2025-12-27: 0</title></rect>
<rect x="380" y="20" width="11" height="11" rx="2.5" fill="#12141c"><title>2025-12-28: 0</title></rect>
<rect x="380" y="34" width="11" height="11" rx="2.5" fill="#12141c"><title>2025-12-29: 0</title></rect>
<rect x="380" y="48" width="11" height="11" rx="2.5" fill="#12141c"><title>2025-12-30: 0</title></rect>
<rect x="380" y="62" width="11" height="11" rx="2.5" fill="#12141c"><title>2025-12-31: 0</title></rect>
<rect x="380" y="76" width="11" height="11" rx="2.5" fill="#12141c"><title>2026-01-01: 0</title></rect>
<rect x="380" y="90" width="11" height="11" rx="2.5" fill="#12141c"><title>2026-01-02: 0</title></rect>
<rect x="380" y="104" width="11" height="11" rx="2.5" fill="#12141c"><title>2026-01-03: 0</title></rect>
<rect x="394" y="20" width="11" height="11" rx="2.5" fill="#12141c"><title>2026-01-04: 0</title></rect>
<rect x="394" y="34" width="11" height="11" rx="2.5" fill="#12141c"><title>2026-01-05: 0</title></rect>
<rect x="394" y="48" width="11" height="11" rx="2.5" fill="#12141c"><title>2026-01-06: 0</title></rect>
<rect x="394" y="62" width="11" height="11" rx="2.5" fill="#12141c"><title>2026-01-07: 0</title></rect>
<rect x="394" y="76" width="11" height="11" rx="2.5" fill="#12141c"><title>2026-01-08: 0</title></rect>
<rect x="394" y="90" width="11" height="11" rx="2.5" fill="#12141c"><title>2026-01-09: 0</title></rect>
<rect x="394" y="104" width="11" height="11" rx="2.5" fill="#12141c"><title>2026-01-10: 0</title></rect>
<rect x="408" y="20" width="11" height="11" rx="2.5" fill="#12141c"><title>2026-01-11: 0</title></rect>
<rect x="408" y="34" width="11" height="11" rx="2.5" fill="#12141c"><title>2026-01-12: 0</title></rect>
<rect x="408" y="48" width="11" height="11" rx="2.5" fill="#12141c"><title>2026-01-13: 0</title></rect>
<rect x="408" y="62" width="11" height="11" rx="2.5" fill="#12141c"><title>2026-01-14: 0</title></rect>
<rect x="408" y="76" width="11" height="11" rx="2.5" fill="#12141c"><title>2026-01-15: 0</title></rect>
<rect x="408" y="90" width="11" height="11" rx="2.5" fill="#12141c"><title>2026-01-16: 0</title></rect>
<rect x="408" y="104" width="11" height="11" rx="2.5" fill="#12141c"><title>2026-01-17: 0</title></rect>
<rect x="422" y="20" width="11" height="11" rx="2.5" fill="#12141c"><title>2026-01-18: 0</title></rect>
<rect x="422" y="34" width="11" height="11" rx="2.5" fill="#12141c"><title>2026-01-19: 0</title></rect>
<rect x="422" y="48" width="11" height="11" rx="2.5" fill="#12141c"><title>2026-01-20: 0</title></rect>
<rect x="422" y="62" width="11" height="11" rx="2.5" fill="#12141c"><title>2026-01-21: 0</title></rect>
<rect x="422" y="76" width="11" height="11" rx="2.5" fill="#12141c"><title>2026-01-22: 0</title></rect>
<rect x="422" y="90" width="11" height="11" rx="2.5" fill="#1c6577"><title>2026-01-23: 8</title></rect>
<rect x="422" y="104" width="11" height="11" rx="2.5" fill="#12141c"><title>2026-01-24: 0</title></rect>
<rect x="436" y="20" width="11" height="11" rx="2.5" fill="#12141c"><title>2026-01-25: 0</title></rect>
<rect x="436" y="34" width="11" height="11" rx="2.5" fill="#123842"><title>2026-01-26: 3</title></rect>
<rect x="436" y="48" width="11" height="11" rx="2.5" fill="#12141c"><title>2026-01-27: 0</title></rect>
<rect x="436" y="62" width="11" height="11" rx="2.5" fill="#123842"><title>2026-01-28: 6</title></rect>
<rect x="436" y="76" width="11" height="11" rx="2.5" fill="#12141c"><title>2026-01-29: 0</title></rect>
<rect x="436" y="90" width="11" height="11" rx="2.5" fill="#12141c"><title>2026-01-30: 0</title></rect>
<rect x="436" y="104" width="11" height="11" rx="2.5" fill="#12141c"><title>2026-01-31: 0</title></rect>
<rect x="450" y="20" width="11" height="11" rx="2.5" fill="#12141c"><title>2026-02-01: 0</title></rect>
<rect x="450" y="34" width="11" height="11" rx="2.5" fill="#12141c"><title>2026-02-02: 0</title></rect>
<rect x="450" y="48" width="11" height="11" rx="2.5" fill="#12141c"><title>2026-02-03: 0</title></rect>
<rect x="450" y="62" width="11" height="11" rx="2.5" fill="#12141c"><title>2026-02-04: 0</title></rect>
<rect x="450" y="76" width="11" height="11" rx="2.5" fill="#12141c"><title>2026-02-05: 0</title></rect>
<rect x="450" y="90" width="11" height="11" rx="2.5" fill="#12141c"><title>2026-02-06: 0</title></rect>
<rect x="450" y="104" width="11" height="11" rx="2.5" fill="#12141c"><title>2026-02-07: 0</title></rect>
<rect x="464" y="20" width="11" height="11" rx="2.5" fill="#12141c"><title>2026-02-08: 0</title></rect>
<rect x="464" y="34" width="11" height="11" rx="2.5" fill="#12141c"><title>2026-02-09: 0</title></rect>
<rect x="464" y="48" width="11" height="11" rx="2.5" fill="#12141c"><title>2026-02-10: 0</title></rect>
<rect x="464" y="62" width="11" height="11" rx="2.5" fill="#12141c"><title>2026-02-11: 0</title></rect>
<rect x="464" y="76" width="11" height="11" rx="2.5" fill="#12141c"><title>2026-02-12: 0</title></rect>
<rect x="464" y="90" width="11" height="11" rx="2.5" fill="#12141c"><title>2026-02-13: 0</title></rect>
<rect x="464" y="104" width="11" height="11" rx="2.5" fill="#12141c"><title>2026-02-14: 0</title></rect>
<rect x="478" y="20" width="11" height="11" rx="2.5" fill="#12141c"><title>2026-02-15: 0</title></rect>
<rect x="478" y="34" width="11" height="11" rx="2.5" fill="#12141c"><title>2026-02-16: 0</title></rect>
<rect x="478" y="48" width="11" height="11" rx="2.5" fill="#12141c"><title>2026-02-17: 0</title></rect>
<rect x="478" y="62" width="11" height="11" rx="2.5" fill="#12141c"><title>2026-02-18: 0</title></rect>
<rect x="478" y="76" width="11" height="11" rx="2.5" fill="#12141c"><title>2026-02-19: 0</title></rect>
<rect x="478" y="90" width="11" height="11" rx="2.5" fill="#12141c"><title>2026-02-20: 0</title></rect>
<rect x="478" y="104" width="11" height="11" rx="2.5" fill="#12141c"><title>2026-02-21: 0</title></rect>
<rect x="492" y="20" width="11" height="11" rx="2.5" fill="#12141c"><title>2026-02-22: 0</title></rect>
<rect x="492" y="34" width="11" height="11" rx="2.5" fill="#12141c"><title>2026-02-23: 0</title></rect>
<rect x="492" y="48" width="11" height="11" rx="2.5" fill="#12141c"><title>2026-02-24: 0</title></rect>
<rect x="492" y="62" width="11" height="11" rx="2.5" fill="#12141c"><title>2026-02-25: 0</title></rect>
<rect x="492" y="76" width="11" height="11" rx="2.5" fill="#12141c"><title>2026-02-26: 0</title></rect>
<rect x="492" y="90" width="11" height="11" rx="2.5" fill="#12141c"><title>2026-02-27: 0</title></rect>
<rect x="492" y="104" width="11" height="11" rx="2.5" fill="#12141c"><title>2026-02-28: 0</title></rect>
<rect x="506" y="20" width="11" height="11" rx="2.5" fill="#12141c"><title>2026-03-01: 0</title></rect>
<rect x="506" y="34" width="11" height="11" rx="2.5" fill="#12141c"><title>2026-03-02: 0</title></rect>
<rect x="506" y="48" width="11" height="11" rx="2.5" fill="#12141c"><title>2026-03-03: 0</title></rect>
<rect x="506" y="62" width="11" height="11" rx="2.5" fill="#12141c"><title>2026-03-04: 0</title></rect>
<rect x="506" y="76" width="11" height="11" rx="2.5" fill="#12141c"><title>2026-03-05: 0</title></rect>
<rect x="506" y="90" width="11" height="11" rx="2.5" fill="#12141c"><title>2026-03-06: 0</title></rect>
<rect x="506" y="104" width="11" height="11" rx="2.5" fill="#12141c"><title>2026-03-07: 0</title></rect>
<rect x="520" y="20" width="11" height="11" rx="2.5" fill="#12141c"><title>2026-03-08: 0</title></rect>
<rect x="520" y="34" width="11" height="11" rx="2.5" fill="#12141c"><title>2026-03-09: 0</title></rect>
<rect x="520" y="48" width="11" height="11" rx="2.5" fill="#12141c"><title>2026-03-10: 0</title></rect>
<rect x="520" y="62" width="11" height="11" rx="2.5" fill="#12141c"><title>2026-03-11: 0</title></rect>
<rect x="520" y="76" width="11" height="11" rx="2.5" fill="#12141c"><title>2026-03-12: 0</title></rect>
<rect x="520" y="90" width="11" height="11" rx="2.5" fill="#12141c"><title>2026-03-13: 0</title></rect>
<rect x="520" y="104" width="11" height="11" rx="2.5" fill="#12141c"><title>2026-03-14: 0</title></rect>
<rect x="534" y="20" width="11" height="11" rx="2.5" fill="#12141c"><title>2026-03-15: 0</title></rect>
<rect x="534" y="34" width="11" height="11" rx="2.5" fill="#1c6577"><title>2026-03-16: 9</title></rect>
<rect x="534" y="48" width="11" height="11" rx="2.5" fill="#1c6577"><title>2026-03-17: 11</title></rect>
<rect x="534" y="62" width="11" height="11" rx="2.5" fill="#1c6577"><title>2026-03-18: 9</title></rect>
<rect x="534" y="76" width="11" height="11" rx="2.5" fill="#22a8c4"><title>2026-03-19: 38</title></rect>
<rect x="534" y="90" width="11" height="11" rx="2.5" fill="#12141c"><title>2026-03-20: 0</title></rect>
<rect x="534" y="104" width="11" height="11" rx="2.5" fill="#12141c"><title>2026-03-21: 0</title></rect>
<rect x="548" y="20" width="11" height="11" rx="2.5" fill="#22a8c4"><title>2026-03-22: 28</title></rect>
<rect x="548" y="34" width="11" height="11" rx="2.5" fill="#22a8c4"><title>2026-03-23: 22</title></rect>
<rect x="548" y="48" width="11" height="11" rx="2.5" fill="#123842"><title>2026-03-24: 4</title></rect>
<rect x="548" y="62" width="11" height="11" rx="2.5" fill="#1c6577"><title>2026-03-25: 14</title></rect>
<rect x="548" y="76" width="11" height="11" rx="2.5" fill="#1c6577"><title>2026-03-26: 12</title></rect>
<rect x="548" y="90" width="11" height="11" rx="2.5" fill="#123842"><title>2026-03-27: 2</title></rect>
<rect x="548" y="104" width="11" height="11" rx="2.5" fill="#12141c"><title>2026-03-28: 0</title></rect>
<rect x="562" y="20" width="11" height="11" rx="2.5" fill="#12141c"><title>2026-03-29: 0</title></rect>
<rect x="562" y="34" width="11" height="11" rx="2.5" fill="#22d3ee"><title>2026-03-30: 67</title></rect>
<rect x="562" y="48" width="11" height="11" rx="2.5" fill="#1c6577"><title>2026-03-31: 15</title></rect>
<rect x="562" y="62" width="11" height="11" rx="2.5" fill="#123842"><title>2026-04-01: 2</title></rect>
<rect x="562" y="76" width="11" height="11" rx="2.5" fill="#123842"><title>2026-04-02: 1</title></rect>
<rect x="562" y="90" width="11" height="11" rx="2.5" fill="#123842"><title>2026-04-03: 2</title></rect>
<rect x="562" y="104" width="11" height="11" rx="2.5" fill="#123842"><title>2026-04-04: 2</title></rect>
<rect x="576" y="20" width="11" height="11" rx="2.5" fill="#12141c"><title>2026-04-05: 0</title></rect>
<rect x="576" y="34" width="11" height="11" rx="2.5" fill="#12141c"><title>2026-04-06: 0</title></rect>
<rect x="576" y="48" width="11" height="11" rx="2.5" fill="#12141c"><title>2026-04-07: 0</title></rect>
<rect x="576" y="62" width="11" height="11" rx="2.5" fill="#12141c"><title>2026-04-08: 0</title></rect>
<rect x="576" y="76" width="11" height="11" rx="2.5" fill="#123842"><title>2026-04-09: 6</title></rect>
<rect x="576" y="90" width="11" height="11" rx="2.5" fill="#1c6577"><title>2026-04-10: 16</title></rect>
<rect x="576" y="104" width="11" height="11" rx="2.5" fill="#22a8c4"><title>2026-04-11: 26</title></rect>
<rect x="590" y="20" width="11" height="11" rx="2.5" fill="#22a8c4"><title>2026-04-12: 41</title></rect>
<rect x="590" y="34" width="11" height="11" rx="2.5" fill="#1c6577"><title>2026-04-13: 16</title></rect>
<rect x="590" y="48" width="11" height="11" rx="2.5" fill="#1c6577"><title>2026-04-14: 14</title></rect>
<rect x="590" y="62" width="11" height="11" rx="2.5" fill="#123842"><title>2026-04-15: 3</title></rect>
<rect x="590" y="76" width="11" height="11" rx="2.5" fill="#22a8c4"><title>2026-04-16: 29</title></rect>
<rect x="590" y="90" width="11" height="11" rx="2.5" fill="#123842"><title>2026-04-17: 2</title></rect>
<rect x="590" y="104" width="11" height="11" rx="2.5" fill="#22a8c4"><title>2026-04-18: 44</title></rect>
<rect x="604" y="20" width="11" height="11" rx="2.5" fill="#22d3ee"><title>2026-04-19: 73</title></rect>
<rect x="604" y="34" width="11" height="11" rx="2.5" fill="#22d3ee"><title>2026-04-20: 95</title></rect>
<rect x="604" y="48" width="11" height="11" rx="2.5" fill="#22a8c4"><title>2026-04-21: 34</title></rect>
<rect x="604" y="62" width="11" height="11" rx="2.5" fill="#22a8c4"><title>2026-04-22: 22</title></rect>
<rect x="604" y="76" width="11" height="11" rx="2.5" fill="#22d3ee"><title>2026-04-23: 55</title></rect>
<rect x="604" y="90" width="11" height="11" rx="2.5" fill="#22d3ee"><title>2026-04-24: 89</title></rect>
<rect x="604" y="104" width="11" height="11" rx="2.5" fill="#22a8c4"><title>2026-04-25: 28</title></rect>
<rect x="618" y="20" width="11" height="11" rx="2.5" fill="#22a8c4"><title>2026-04-26: 28</title></rect>
<rect x="618" y="34" width="11" height="11" rx="2.5" fill="#22a8c4"><title>2026-04-27: 31</title></rect>
<rect x="618" y="48" width="11" height="11" rx="2.5" fill="#22d3ee"><title>2026-04-28: 59</title></rect>
<rect x="618" y="62" width="11" height="11" rx="2.5" fill="#22a8c4"><title>2026-04-29: 36</title></rect>
<rect x="618" y="76" width="11" height="11" rx="2.5" fill="#22a8c4"><title>2026-04-30: 27</title></rect>
<rect x="618" y="90" width="11" height="11" rx="2.5" fill="#22d3ee"><title>2026-05-01: 85</title></rect>
<rect x="618" y="104" width="11" height="11" rx="2.5" fill="#22d3ee"><title>2026-05-02: 130</title></rect>
<rect x="632" y="20" width="11" height="11" rx="2.5" fill="#22d3ee"><title>2026-05-03: 162</title></rect>
<rect x="632" y="34" width="11" height="11" rx="2.5" fill="#22d3ee"><title>2026-05-04: 112</title></rect>
<rect x="632" y="48" width="11" height="11" rx="2.5" fill="#1c6577"><title>2026-05-05: 13</title></rect>
<rect x="632" y="62" width="11" height="11" rx="2.5" fill="#12141c"><title>2026-05-06: 0</title></rect>
<rect x="632" y="76" width="11" height="11" rx="2.5" fill="#22d3ee"><title>2026-05-07: 132</title></rect>
<rect x="632" y="90" width="11" height="11" rx="2.5" fill="#22a8c4"><title>2026-05-08: 25</title></rect>
<rect x="632" y="104" width="11" height="11" rx="2.5" fill="#22d3ee"><title>2026-05-09: 72</title></rect>
<rect x="646" y="20" width="11" height="11" rx="2.5" fill="#123842"><title>2026-05-10: 6</title></rect>
<rect x="646" y="34" width="11" height="11" rx="2.5" fill="#22d3ee"><title>2026-05-11: 58</title></rect>
<rect x="646" y="48" width="11" height="11" rx="2.5" fill="#1c6577"><title>2026-05-12: 14</title></rect>
<rect x="646" y="62" width="11" height="11" rx="2.5" fill="#123842"><title>2026-05-13: 5</title></rect>
<rect x="646" y="76" width="11" height="11" rx="2.5" fill="#12141c"><title>2026-05-14: 0</title></rect>
<rect x="646" y="90" width="11" height="11" rx="2.5" fill="#22a8c4"><title>2026-05-15: 35</title></rect>
<rect x="646" y="104" width="11" height="11" rx="2.5" fill="#12141c"><title>2026-05-16: 0</title></rect>
<rect x="660" y="20" width="11" height="11" rx="2.5" fill="#12141c"><title>2026-05-17: 0</title></rect>
<rect x="660" y="34" width="11" height="11" rx="2.5" fill="#1c6577"><title>2026-05-18: 12</title></rect>
<rect x="660" y="48" width="11" height="11" rx="2.5" fill="#22d3ee"><title>2026-05-19: 132</title></rect>
<rect x="660" y="62" width="11" height="11" rx="2.5" fill="#22a8c4"><title>2026-05-20: 42</title></rect>
<rect x="660" y="76" width="11" height="11" rx="2.5" fill="#22d3ee"><title>2026-05-21: 119</title></rect>
<rect x="660" y="90" width="11" height="11" rx="2.5" fill="#22d3ee"><title>2026-05-22: 62</title></rect>
<rect x="660" y="104" width="11" height="11" rx="2.5" fill="#12141c"><title>2026-05-23: 0</title></rect>
<rect x="674" y="20" width="11" height="11" rx="2.5" fill="#22a8c4"><title>2026-05-24: 23</title></rect>
<rect x="674" y="34" width="11" height="11" rx="2.5" fill="#22d3ee"><title>2026-05-25: 116</title></rect>
<rect x="674" y="48" width="11" height="11" rx="2.5" fill="#22d3ee"><title>2026-05-26: 112</title></rect>
<rect x="674" y="62" width="11" height="11" rx="2.5" fill="#22d3ee"><title>2026-05-27: 108</title></rect>
<rect x="674" y="76" width="11" height="11" rx="2.5" fill="#1c6577"><title>2026-05-28: 15</title></rect>
<rect x="674" y="90" width="11" height="11" rx="2.5" fill="#22a8c4"><title>2026-05-29: 45</title></rect>
<rect x="674" y="104" width="11" height="11" rx="2.5" fill="#12141c"><title>2026-05-30: 0</title></rect>
<rect x="688" y="20" width="11" height="11" rx="2.5" fill="#22d3ee"><title>2026-05-31: 110</title></rect>
<rect x="688" y="34" width="11" height="11" rx="2.5" fill="#22d3ee"><title>2026-06-01: 168</title></rect>
<rect x="688" y="48" width="11" height="11" rx="2.5" fill="#22d3ee"><title>2026-06-02: 248</title></rect>
<rect x="688" y="62" width="11" height="11" rx="2.5" fill="#22d3ee"><title>2026-06-03: 55</title></rect>
<rect x="688" y="76" width="11" height="11" rx="2.5" fill="#123842"><title>2026-06-04: 5</title></rect>
<rect x="688" y="90" width="11" height="11" rx="2.5" fill="#1c6577"><title>2026-06-05: 8</title></rect>
<rect x="688" y="104" width="11" height="11" rx="2.5" fill="#12141c"><title>2026-06-06: 0</title></rect>
<rect x="702" y="20" width="11" height="11" rx="2.5" fill="#12141c"><title>2026-06-07: 0</title></rect>
<rect x="702" y="34" width="11" height="11" rx="2.5" fill="#22a8c4"><title>2026-06-08: 27</title></rect>
<rect x="702" y="48" width="11" height="11" rx="2.5" fill="#22a8c4"><title>2026-06-09: 38</title></rect>
<rect x="702" y="62" width="11" height="11" rx="2.5" fill="#22d3ee"><title>2026-06-10: 54</title></rect>
<rect x="702" y="76" width="11" height="11" rx="2.5" fill="#22d3ee"><title>2026-06-11: 52</title></rect>
<rect x="702" y="90" width="11" height="11" rx="2.5" fill="#1c6577"><title>2026-06-12: 21</title></rect>
<rect x="702" y="104" width="11" height="11" rx="2.5" fill="#12141c"><title>2026-06-13: 0</title></rect>
<rect x="716" y="20" width="11" height="11" rx="2.5" fill="#12141c"><title>2026-06-14: 0</title></rect>
<rect x="716" y="34" width="11" height="11" rx="2.5" fill="#123842"><title>2026-06-15: 6</title></rect>
<rect x="716" y="48" width="11" height="11" rx="2.5" fill="#1c6577"><title>2026-06-16: 14</title></rect>
<rect x="716" y="62" width="11" height="11" rx="2.5" fill="#1c6577"><title>2026-06-17: 9</title></rect>
<rect x="716" y="76" width="11" height="11" rx="2.5" fill="#1c6577"><title>2026-06-18: 7</title></rect>
<rect x="716" y="90" width="11" height="11" rx="2.5" fill="#22a8c4"><title>2026-06-19: 24</title></rect>
<rect x="716" y="104" width="11" height="11" rx="2.5" fill="#12141c"><title>2026-06-20: 0</title></rect>
<rect x="730" y="20" width="11" height="11" rx="2.5" fill="#12141c"><title>2026-06-21: 0</title></rect>
<rect x="730" y="34" width="11" height="11" rx="2.5" fill="#22a8c4"><title>2026-06-22: 28</title></rect>
<rect x="730" y="48" width="11" height="11" rx="2.5" fill="#22d3ee"><title>2026-06-23: 62</title></rect>
<rect x="730" y="62" width="11" height="11" rx="2.5" fill="#22d3ee"><title>2026-06-24: 46</title></rect>
<rect x="730" y="76" width="11" height="11" rx="2.5" fill="#22a8c4"><title>2026-06-25: 40</title></rect>
<rect x="730" y="90" width="11" height="11" rx="2.5" fill="#22a8c4"><title>2026-06-26: 28</title></rect>
<rect x="730" y="104" width="11" height="11" rx="2.5" fill="#22a8c4"><title>2026-06-27: 33</title></rect>
<rect x="744" y="20" width="11" height="11" rx="2.5" fill="#123842"><title>2026-06-28: 6</title></rect>
<rect x="744" y="34" width="11" height="11" rx="2.5" fill="#22a8c4"><title>2026-06-29: 26</title></rect>
<rect x="744" y="48" width="11" height="11" rx="2.5" fill="#1c6577"><title>2026-06-30: 16</title></rect>
<rect x="744" y="62" width="11" height="11" rx="2.5" fill="#1c6577"><title>2026-07-01: 17</title></rect>
<rect x="744" y="76" width="11" height="11" rx="2.5" fill="#22d3ee"><title>2026-07-02: 89</title></rect>
<rect x="744" y="90" width="11" height="11" rx="2.5" fill="#1c6577"><title>2026-07-03: 9</title></rect>
<rect x="744" y="104" width="11" height="11" rx="2.5" fill="#12141c"><title>2026-07-04: 0</title></rect>
<rect x="758" y="20" width="11" height="11" rx="2.5" fill="#123842"><title>2026-07-05: 6</title></rect>
<rect x="758" y="34" width="11" height="11" rx="2.5" fill="#1c6577"><title>2026-07-06: 14</title></rect>
<rect x="758" y="48" width="11" height="11" rx="2.5" fill="#123842"><title>2026-07-07: 3</title></rect>
  </g>

  <g font-size="14" font-weight="600">
    <text x="30" y="230" fill="#22d3ee" font-size="26" font-weight="800">4,825</text>
    <text x="30" y="252" fill="#8e99ad" font-size="12.5">contributions, past 12 months</text>

    <text x="260" y="230" fill="#a78bfa" font-size="26" font-weight="800">27</text>
    <text x="260" y="252" fill="#8e99ad" font-size="12.5">longest streak (days)</text>

    <text x="440" y="230" fill="#f472b6" font-size="26" font-weight="800">156</text>
    <text x="440" y="252" fill="#8e99ad" font-size="12.5">active days / 367</text>

    <text x="640" y="230" fill="#eef2f8" font-size="26" font-weight="800">29</text>
    <text x="640" y="252" fill="#8e99ad" font-size="12.5">public repositories</text>
  </g>

  <text x="30" y="282" font-size="11.5" fill="#5b6577">github.com/ultimania · contributionsCollection via GitHub GraphQL API</text>
</svg>
